<svg width="16" height="16" viewBox="0 0 16 16" fill="none" xmlns="http://www.w3.org/2000/svg">
<g clip-path="url(#clip0_13193_106704)">
<path d="M10.6377 1.5C10.4101 1.75484 10.1091 1.94242 9.76562 2.02832L9.03125 2.21191C7.69018 2.54748 7.69006 4.45366 9.03125 4.78906L9.76562 4.97266C10.387 5.12811 10.8729 5.61294 11.0283 6.23438L11.2119 6.96875C11.2195 6.99909 11.2281 7.02865 11.2373 7.05762C11.2399 7.05721 11.2425 7.05606 11.2451 7.05566C8.8418 7.41954 7 9.49513 7 12C7 12.7258 7.15606 13.4149 7.43457 14.0371C7.52878 14.248 7.38139 14.5 7.15039 14.5H4C2.067 14.5 0.5 12.933 0.5 11V5C0.5 3.067 2.067 1.5 4 1.5H10.6377ZM15.5 5V7.71582C15.5 7.98168 15.1703 8.12521 14.9561 7.96777C14.5657 7.68097 14.1321 7.44978 13.667 7.28516C13.7173 7.18938 13.7601 7.0845 13.7891 6.96875L13.9727 6.23438C14.1281 5.61306 14.6131 5.12814 15.2344 4.97266L15.4971 4.90625C15.4979 4.93742 15.5 4.96864 15.5 5ZM12.4248 7.01758C12.4414 7.01899 12.458 7.02088 12.4746 7.02246C12.458 7.0209 12.4414 7.01898 12.4248 7.01758ZM11.5742 7.01855C11.6025 7.01618 11.6308 7.0146 11.6592 7.0127C11.6308 7.01461 11.6025 7.01617 11.5742 7.01855Z" fill="#A1D0F7"/>
<path d="M10.9512 1C10.756 1.47865 10.3544 1.84603 9.85547 2H4C2.34315 2 1 3.34315 1 5V11C1 12.6569 2.34315 14 4 14H7.41699C7.46509 14.1101 7.51671 14.2184 7.57227 14.3242C7.72544 14.6162 7.52892 15 7.19922 15H4C1.79086 15 9.66384e-08 13.2091 0 11V5C9.66416e-08 2.79086 1.79086 1 4 1H10.9512ZM15.8984 4.10742C15.9639 4.39453 16 4.69306 16 5V7.80176C15.9998 8.18586 15.4696 8.37974 15.1729 8.13574C15.1163 8.08924 15.0586 8.04403 15 8V5.04883C15.0755 5.01805 15.1539 4.9928 15.2344 4.97266L15.9688 4.78906C15.9772 4.78695 15.9858 4.78348 15.9941 4.78125C15.9817 4.5508 15.9482 4.32588 15.8984 4.10742ZM12 1C12.1798 1 12.3568 1.01217 12.5303 1.03516C12.3568 1.01217 12.1798 1 12 1ZM15.5654 3.1875C15.5834 3.22276 15.6012 3.25809 15.6182 3.29395C15.6012 3.25809 15.5834 3.22276 15.5654 3.1875Z" fill="#045EB2"/>
<path d="M7.6084 9.6084C7.22067 10.3189 7 11.1336 7 12C7 12.7258 7.15606 13.4149 7.43457 14.0371C7.52878 14.248 7.38139 14.5 7.15039 14.5H4C3.03361 14.4999 2.15871 14.1079 1.52539 13.4746L6.5 8.5L7.6084 9.6084ZM11.2119 6.96875C11.2195 6.99909 11.2281 7.02865 11.2373 7.05762C11.2661 7.05321 11.2952 7.05079 11.3242 7.04688C11.1706 7.06778 11.019 7.09451 10.8701 7.12891L11.1748 6.82324L11.2119 6.96875ZM11.5283 7.02344C11.5734 7.01923 11.6186 7.01569 11.6641 7.0127C11.6186 7.01574 11.5734 7.01918 11.5283 7.02344Z" fill="#EEEEEE"/>
<path d="M6.4999 8C6.63232 8.00013 6.75977 8.05285 6.85342 8.14648L7.87685 9.16992C7.68063 9.45524 7.51311 9.76206 7.37881 10.0859L6.4999 9.20703L2.26162 13.4443C2.7521 13.7937 3.35187 14 3.9999 14H7.41689C7.46498 14.11 7.51664 14.2185 7.57217 14.3242C7.72514 14.6161 7.52861 14.9998 7.19912 15H3.9999C2.89567 14.9999 1.89502 14.5513 1.17177 13.8281C0.976569 13.6329 0.976623 13.3164 1.17177 13.1211L6.14638 8.14648L6.18349 8.11328C6.27235 8.04061 6.3841 8.00006 6.4999 8ZM11.2118 6.96875C11.2194 6.99908 11.228 7.02865 11.2372 7.05762C11.2624 7.05376 11.288 7.05231 11.3134 7.04883C10.7636 7.12435 10.2422 7.2873 9.76455 7.52637L11.0341 6.25781L11.2118 6.96875ZM12.4022 7.0166C12.5031 7.02472 12.603 7.03576 12.702 7.0498C12.603 7.0359 12.5031 7.02454 12.4022 7.0166ZM11.538 7.02246C11.575 7.01908 11.6121 7.01526 11.6493 7.0127C11.6121 7.01528 11.575 7.01907 11.538 7.02246ZM12.2177 7.00488C12.2621 7.00681 12.3064 7.0096 12.3505 7.0127L11.9999 7L12.2177 7.00488Z" fill="#888888"/>
<path d="M6 5.5C6 6.32843 5.32843 7 4.5 7C3.67157 7 3 6.32843 3 5.5C3 4.67157 3.67157 4 4.5 4C5.32843 4 6 4.67157 6 5.5Z" fill="#FFE8A3"/>
<path d="M12.1816 0.273492C12.2644 -0.0579603 12.7355 -0.0579612 12.8183 0.273491L13.002 1.00801C13.2469 1.98787 14.012 2.75296 14.9919 2.99793L15.7264 3.18156C16.0578 3.26442 16.0578 3.73547 15.7264 3.81833L14.9919 4.00196C14.012 4.24693 13.2469 5.01201 13.002 5.99188L12.8183 6.72639C12.7355 7.05784 12.2644 7.05785 12.1816 6.72639L11.9979 5.99188C11.753 5.01201 10.9879 4.24693 10.008 4.00196L9.27349 3.81833C8.94204 3.73547 8.94204 3.26442 9.27349 3.18156L10.008 2.99793C10.9879 2.75296 11.753 1.98787 11.9979 1.00801L12.1816 0.273492Z" fill="#045EB2"/>
<path d="M15.5 12C15.5 13.933 13.933 15.5 12 15.5C10.067 15.5 8.5 13.933 8.5 12C8.5 10.067 10.067 8.5 12 8.5C13.933 8.5 15.5 10.067 15.5 12Z" fill="#F05F2B"/>
<path d="M15 12C15 10.3431 13.6569 9 12 9C10.3431 9 9 10.3431 9 12C9 13.6569 10.3431 15 12 15C13.6569 15 15 13.6569 15 12ZM16 12C16 14.2091 14.2091 16 12 16C9.79086 16 8 14.2091 8 12C8 9.79086 9.79086 8 12 8C14.2091 8 16 9.79086 16 12Z" fill="#9E2B08"/>
<path d="M13.5 11.5C13.7761 11.5 14 11.7239 14 12C14 12.2761 13.7761 12.5 13.5 12.5H10.5C10.2239 12.5 10 12.2761 10 12C10 11.7239 10.2239 11.5 10.5 11.5H13.5Z" fill="white"/>
</g>
<defs>
<clipPath id="clip0_13193_106704">
<rect width="16" height="16" fill="white"/>
</clipPath>
</defs>
</svg>
