<svg width="24" height="24" viewBox="0 0 24 24" fill="none" xmlns="http://www.w3.org/2000/svg">
<path d="M12.8605 2.01593C13.5114 1.99666 14.153 2.14797 14.6447 2.36945C14.8896 2.47977 15.1292 2.62142 15.3205 2.79523C15.4853 2.94509 15.7473 3.24127 15.7473 3.66242C15.7472 4.85685 15.6592 6.29306 15.8859 7.47882C15.9974 8.06201 16.1702 8.48708 16.3957 8.75519C16.5932 8.98993 16.8636 9.14666 17.3224 9.14679H18.0617C18.45 8.83327 18.9417 8.64592 19.4728 8.64582H19.8127C21.0553 8.64582 22.0626 9.65326 22.0627 10.8958V18.6458C22.0627 19.8885 21.0553 20.8958 19.8127 20.8958H18.3058C17.3773 20.8957 16.5966 20.3377 16.2492 19.5569L6.81659 20.7591C5.9231 20.8727 5.03299 20.5232 4.45624 19.8314C4.05251 19.347 3.9106 18.6956 4.07635 18.0872L4.13788 17.8626L3.85077 17.6458C3.02205 17.0193 2.75746 15.8905 3.22186 14.9612L3.40155 14.6019L2.96112 14.1849C2.02531 13.2985 2.07355 11.7986 3.05487 10.972L2.87616 10.637C2.43317 9.80038 2.58758 8.77222 3.25702 8.10285L3.37909 7.98175C3.78337 7.57761 4.33187 7.35 4.9035 7.34992H10.1047C10.2876 7.34992 10.4054 7.33282 10.4767 7.31672C10.4749 7.29983 10.4749 7.2792 10.4709 7.25617C10.4464 7.1164 10.386 6.92131 10.2775 6.65558C10.1148 6.25696 10.0188 5.79227 10.0187 5.24738C10.0187 4.17509 10.3283 3.34536 10.9074 2.78351C11.4771 2.23093 12.2076 2.0354 12.8605 2.01593ZM19.4728 10.1458C19.102 10.146 18.7869 10.4178 18.7316 10.7845L17.5637 18.5345C17.4956 18.9878 17.8474 19.3956 18.3058 19.3958H19.8127C20.2269 19.3958 20.5627 19.06 20.5627 18.6458V10.8958C20.5626 10.4817 20.2268 10.1458 19.8127 10.1458H19.4728ZM12.9055 3.51496C12.5017 3.52697 12.1752 3.64448 11.9523 3.86066C11.7388 4.06789 11.5187 4.46404 11.5187 5.24738C11.5188 5.61107 11.582 5.88166 11.6662 6.0882C11.7924 6.39744 11.8974 6.70631 11.9484 6.99836C11.9986 7.28527 12.0096 7.62727 11.8723 7.95636C11.5574 8.71013 10.7548 8.84991 10.1047 8.84992H4.9035C4.72961 8.85 4.56263 8.91937 4.43963 9.0423L4.31756 9.16437C4.11425 9.368 4.06686 9.68048 4.20135 9.93488L4.66717 10.8138C4.83445 11.1302 4.75458 11.5207 4.47674 11.7464L4.02948 12.1097C3.72215 12.3596 3.70479 12.8236 3.99237 13.096L4.8371 13.8958C5.07674 14.123 5.13913 14.4803 4.99139 14.7757L4.56366 15.6321C4.42251 15.9149 4.50301 16.2579 4.75506 16.4486L5.44745 16.972C5.69193 17.1568 5.79953 17.4722 5.71893 17.7679L5.52362 18.4818C5.48674 18.6173 5.51869 18.7624 5.60858 18.8704C5.85745 19.169 6.24158 19.3207 6.62713 19.2718L16.1174 18.0618L17.2355 10.6439C16.3888 10.622 15.7231 10.2846 15.2482 9.72004C14.7853 9.16959 14.5452 8.45595 14.4123 7.76105C14.1659 6.47234 14.2359 4.90921 14.2453 3.85675C14.1955 3.82302 14.1243 3.78078 14.0285 3.73761C13.7275 3.60208 13.3115 3.50295 12.9055 3.51496Z" fill="black" fill-opacity="0.84"/>
</svg>
