<svg width="56" height="56" viewBox="0 0 56 56" fill="none" xmlns="http://www.w3.org/2000/svg">
<path d="M46.4403 16.79C36.6845 2.13619 16.7102 1.46105 9.0829 13.3193C7.26305 16.1491 11.0428 18.1493 14.079 16.6992C20.9864 13.3995 28.0526 15.3263 33.495 23.0224C34.0805 23.8575 33.8002 24.9344 32.9403 25.3681L30.4931 27.0087C28.8559 28.1066 28.9716 30.5477 30.7108 31.4755C30.8663 31.5584 31.0255 31.6422 31.1874 31.7284C33.6484 29.1247 37.1344 27.4999 40.9999 27.4999C44.7343 27.5 48.1145 29.0162 50.5585 31.4667C51.5444 27.6632 52.6536 23.3683 53.4979 20.0839C54.047 17.9469 51.866 16.1363 49.8632 17.0624L48.8593 17.5273C48.0454 17.9343 46.9814 17.5986 46.4403 16.79Z" fill="#FF8D5C"/>
<path d="M6.07688 23.0228C14.0569 12.4749 28.1694 12.3295 33.8435 24.3324C39.2266 13.3479 18.4943 4.03654 6.07688 23.0228Z" fill="#F05F2B"/>
<path d="M34.1542 22.0843C29.821 14.8368 22.6942 12.7797 16.1737 14.7181C15.1826 15.0127 14.3593 15.4203 13.785 15.7533C13.4968 15.9204 13.2683 16.0712 13.1083 16.182C13.0282 16.2374 12.9646 16.2835 12.9198 16.3168C12.8976 16.3333 12.8792 16.3467 12.8661 16.3568C12.8597 16.3617 12.8546 16.3663 12.8504 16.3695C12.8484 16.3711 12.8461 16.3722 12.8446 16.3734L12.8426 16.3753H12.8417V16.3763C12.8455 16.3815 12.8891 16.437 13.369 17.0443L12.8407 16.3763C12.4077 16.7188 12.3344 17.3474 12.6766 17.7806C13.0186 18.213 13.6458 18.2872 14.079 17.9466C14.0795 17.9462 14.0815 17.9455 14.0838 17.9437C14.0891 17.9396 14.0992 17.9316 14.1131 17.9212C14.1411 17.9005 14.1858 17.8681 14.246 17.8265C14.3676 17.7423 14.5522 17.621 14.7889 17.4837C15.2646 17.2079 15.9405 16.8737 16.743 16.6351C22.4276 14.945 28.5953 16.6828 32.4383 23.1107C33.0363 24.1113 32.6764 24.6819 32.4061 24.8529C31.6168 25.352 30.8163 25.8026 29.7635 26.4964C28.332 27.4399 28.0723 28.732 28.1141 29.5823C28.1146 29.5924 28.1153 29.6035 28.1161 29.6136C28.1649 30.2225 28.3875 30.7744 28.8251 31.2737C29.2347 31.741 29.8065 32.1321 30.5087 32.5042C30.9454 31.9656 31.4221 31.4608 31.9354 30.9954C31.7547 30.8997 31.5923 30.8157 31.452 30.7415C30.8372 30.4163 30.5075 30.159 30.329 29.9554C30.1806 29.7861 30.1273 29.6439 30.1112 29.4661C30.1047 29.2909 30.1267 29.0848 30.2176 28.8773C30.3077 28.6718 30.4852 28.4161 30.8641 28.1663C31.9343 27.461 32.5453 27.1315 33.4755 26.5433C34.9247 25.6268 35.1353 23.7256 34.1542 22.0843ZM47.2723 16.2337C37.4434 1.4722 17.288 0.211526 8.79868 11.9623C8.78598 11.9799 8.7731 11.9976 8.76158 12.016C7.74002 13.6451 7.18315 14.5627 6.54868 15.8412C6.30333 16.3358 6.50522 16.9355 6.99986 17.181C7.49446 17.4263 8.09416 17.2243 8.3397 16.7298C8.92229 15.5559 9.42987 14.7134 10.4315 13.1156C17.9161 2.78423 36.3634 3.45783 45.6083 17.3441L45.6102 17.346C46.3908 18.5117 47.9797 19.0847 49.3065 18.4212L49.3143 18.4173L51.0917 17.5091C52.0639 17.0844 53.2629 18.0407 52.9511 19.2152C52.5319 20.794 51.4509 24.5959 50.3446 28.5042C50.1372 29.2368 49.9313 29.9738 49.7264 30.6995C50.3113 31.1955 50.8536 31.74 51.3466 32.3274C51.6468 31.261 51.9571 30.1515 52.2694 29.0482C53.3715 25.1546 54.46 21.3274 54.8847 19.7279C55.5903 17.0685 52.9064 14.4995 50.2587 15.6908L50.2138 15.7123L48.412 16.6322C48.1302 16.7731 47.6398 16.6957 47.3309 16.3138L47.2723 16.2337Z" fill="#9E2B08"/>
<path d="M10.2227 15.5293C8.9365 14.8853 7.53505 15.5642 7.14355 16.9483C5.94842 21.1733 3.64407 29.5133 2.13574 34.9834C1.55134 37.1028 3.68311 38.9473 5.70019 38.0733L6.97754 37.5195C7.80543 37.119 8.87034 37.4725 9.40039 38.2969C14.7443 46.6524 23.4074 50.6517 31.3926 50.4824C28.9862 48.0446 27.5001 44.6961 27.5 41C27.5 39.8813 27.6371 38.7944 27.8936 37.7549C25.9873 36.4181 24.1931 34.5602 22.5654 32.167C21.9914 31.3154 22.2937 30.2319 23.168 29.8047L25.6299 28.3047C27.3397 27.2633 27.298 24.771 25.5479 23.7988C21.119 21.3387 14.0205 17.4309 10.2227 15.5293Z" fill="#75B6EB"/>
<path d="M9.38867 38.1514C15.1198 47.4242 23.8309 51.2001 31.71 50.7949C30.6457 49.7852 29.7468 48.6035 29.0557 47.2949C17.8951 46.5582 9.38867 38.1514 9.38867 38.1514Z" fill="#4397E0"/>
<path d="M10.458 14.5115C8.68433 13.6509 6.76155 14.627 6.23832 16.4412C5.00652 20.7146 2.48348 29.6557 0.92094 35.2019C0.149974 37.9385 2.8902 40.3359 5.50004 39.2303L7.36722 38.4393L7.38968 38.4295L7.41214 38.4188C7.72328 38.2682 8.26341 38.3782 8.55863 38.8367L8.5762 38.8631L8.59476 38.8895L10.794 41.8748L10.8047 41.8895L10.8174 41.9051C16.4319 48.9481 24.5286 52.1315 32.0205 51.7039C32.2505 51.6908 32.4802 51.6731 32.709 51.6532C31.98 51.085 31.3112 50.4436 30.7129 49.7401C24.2018 49.7479 17.2941 46.8127 12.3916 40.6707L10.2051 37.7029H10.2041C9.43506 36.5622 7.90121 35.9919 6.58695 36.5984V36.5975L4.71976 37.3895C3.64674 37.8439 2.53228 36.8583 2.84574 35.7449C4.4088 30.1968 6.93037 21.2625 8.16019 16.9959C8.36291 16.2928 9.0018 16.0285 9.58499 16.3113C13.453 18.1892 20.5054 22.1965 25.335 24.7986C25.8096 25.0544 26.1039 25.5964 26.1074 26.2097C26.1108 26.8197 25.8297 27.3129 25.375 27.532L25.3613 27.5379L25.3486 27.5447L22.707 28.9158C21.2953 29.6211 20.8331 31.3853 21.7363 32.7254C23.5989 35.4878 25.5719 37.5561 27.6494 38.992C27.7577 38.2661 27.9236 37.5591 28.1426 36.8758C26.5252 35.6274 24.9404 33.9 23.3945 31.6072C23.1547 31.2511 23.2867 30.8582 23.6065 30.7019L23.6182 30.6971L23.6289 30.6912L26.2695 29.3201L26.2686 29.3181C27.5459 28.6886 28.114 27.3964 28.1074 26.199C28.1007 24.9971 27.519 23.7037 26.2832 23.0379C21.539 20.4818 14.3737 16.4125 10.458 14.5115Z" fill="#045EB2"/>
<path d="M41 52C47.0751 52 52 47.0751 52 41C52 34.9249 47.0751 30 41 30C34.9249 30 30 34.9249 30 41C30 47.0751 34.9249 52 41 52Z" fill="#38B26A"/>
<path d="M44.6997 36.4447C45.2049 35.7883 46.1467 35.6662 46.8033 36.1712C47.4597 36.6764 47.5827 37.6182 47.0777 38.2748L41.4253 45.6224C40.6083 46.6845 39.0211 46.7267 38.149 45.7093L34.9722 42.0023C34.4331 41.3733 34.5053 40.4262 35.1343 39.8871C35.7633 39.348 36.7104 39.4213 37.2495 40.0501L39.7134 42.9261L44.6997 36.4447Z" fill="white"/>
</svg>
