<svg width="24" height="24" viewBox="0 0 24 24" fill="none" xmlns="http://www.w3.org/2000/svg">
<path d="M2.75 15.25C3.16421 15.25 3.5 15.5858 3.5 16V17C3.5 18.933 5.067 20.5 7 20.5H8C8.41421 20.5 8.75 20.8358 8.75 21.25C8.75 21.6642 8.41421 22 8 22H7C4.23858 22 2 19.7614 2 17V16C2 15.5858 2.33579 15.25 2.75 15.25Z" fill="black" fill-opacity="0.84"/>
<path d="M21.25 15.25C21.6642 15.25 22 15.5858 22 16V17C22 19.7614 19.7614 22 17 22H16C15.5858 22 15.25 21.6642 15.25 21.25C15.25 20.8358 15.5858 20.5 16 20.5H17C18.933 20.5 20.5 18.933 20.5 17V16C20.5 15.5858 20.8358 15.25 21.25 15.25Z" fill="black" fill-opacity="0.84"/>
<path fill-rule="evenodd" clip-rule="evenodd" d="M9 12.5C10.2426 12.5 11.25 13.5074 11.25 14.75V16.25C11.25 17.4926 10.2426 18.5 9 18.5H7.5C6.25736 18.5 5.25 17.4926 5.25 16.25V14.75C5.25 13.5074 6.25736 12.5 7.5 12.5H9ZM7.5 14C7.08579 14 6.75 14.3358 6.75 14.75V16.25C6.75 16.6642 7.08579 17 7.5 17H9C9.41421 17 9.75 16.6642 9.75 16.25V14.75C9.75 14.3358 9.41421 14 9 14H7.5Z" fill="black" fill-opacity="0.84"/>
<path d="M13.5 16.125C13.9142 16.125 14.25 16.4608 14.25 16.875V17H14.5C14.9142 17 15.25 17.3358 15.25 17.75C15.25 18.1642 14.9142 18.5 14.5 18.5H14C13.3096 18.5 12.75 17.9404 12.75 17.25V16.875C12.75 16.4608 13.0858 16.125 13.5 16.125Z" fill="black" fill-opacity="0.84"/>
<path d="M18 15.875C18.4142 15.875 18.75 16.2108 18.75 16.625V17.25C18.75 17.9404 18.1904 18.5 17.5 18.5H17C16.5858 18.5 16.25 18.1642 16.25 17.75C16.25 17.3358 16.5858 17 17 17H17.25V16.625C17.25 16.2108 17.5858 15.875 18 15.875Z" fill="black" fill-opacity="0.84"/>
<path d="M16 14.5C16.4142 14.5 16.75 14.8358 16.75 15.25V15.75C16.75 16.1642 16.4142 16.5 16 16.5H15.5C15.0858 16.5 14.75 16.1642 14.75 15.75V15.25C14.75 14.8358 15.0858 14.5 15.5 14.5H16Z" fill="black" fill-opacity="0.84"/>
<path d="M17.5 12.5C18.1904 12.5 18.75 13.0596 18.75 13.75V14.375C18.75 14.7892 18.4142 15.125 18 15.125C17.5858 15.125 17.25 14.7892 17.25 14.375V14H17C16.5858 14 16.25 13.6642 16.25 13.25C16.25 12.8358 16.5858 12.5 17 12.5H17.5Z" fill="black" fill-opacity="0.84"/>
<path d="M14.5 12.5C14.9142 12.5 15.25 12.8358 15.25 13.25C15.25 13.6642 14.9142 14 14.5 14H14.25V14.25C14.25 14.6642 13.9142 15 13.5 15C13.0858 15 12.75 14.6642 12.75 14.25V13.75C12.75 13.0596 13.3096 12.5 14 12.5H14.5Z" fill="black" fill-opacity="0.84"/>
<path fill-rule="evenodd" clip-rule="evenodd" d="M9 5.25C10.2426 5.25 11.25 6.25736 11.25 7.5V9C11.25 10.2426 10.2426 11.25 9 11.25H7.5C6.25736 11.25 5.25 10.2426 5.25 9V7.5C5.25 6.25736 6.25736 5.25 7.5 5.25H9ZM7.5 6.75C7.08579 6.75 6.75 7.08579 6.75 7.5V9C6.75 9.41421 7.08579 9.75 7.5 9.75H9C9.41421 9.75 9.75 9.41421 9.75 9V7.5C9.75 7.08579 9.41421 6.75 9 6.75H7.5Z" fill="black" fill-opacity="0.84"/>
<path fill-rule="evenodd" clip-rule="evenodd" d="M16.5 5.25C17.7426 5.25 18.75 6.25736 18.75 7.5V9C18.75 10.2426 17.7426 11.25 16.5 11.25H15C13.7574 11.25 12.75 10.2426 12.75 9V7.5C12.75 6.25736 13.7574 5.25 15 5.25H16.5ZM15 6.75C14.5858 6.75 14.25 7.08579 14.25 7.5V9C14.25 9.41421 14.5858 9.75 15 9.75H16.5C16.9142 9.75 17.25 9.41421 17.25 9V7.5C17.25 7.08579 16.9142 6.75 16.5 6.75H15Z" fill="black" fill-opacity="0.84"/>
<path d="M8 2C8.41421 2 8.75 2.33579 8.75 2.75C8.75 3.16421 8.41421 3.5 8 3.5H7C5.067 3.5 3.5 5.067 3.5 7V8C3.5 8.41421 3.16421 8.75 2.75 8.75C2.33579 8.75 2 8.41421 2 8V7C2 4.23858 4.23858 2 7 2H8Z" fill="black" fill-opacity="0.84"/>
<path d="M17 2C19.7614 2 22 4.23858 22 7V8C22 8.41421 21.6642 8.75 21.25 8.75C20.8358 8.75 20.5 8.41421 20.5 8V7C20.5 5.067 18.933 3.5 17 3.5H16C15.5858 3.5 15.25 3.16421 15.25 2.75C15.25 2.33579 15.5858 2 16 2H17Z" fill="black" fill-opacity="0.84"/>
</svg>
