<svg width="16" height="16" viewBox="0 0 16 16" fill="none" xmlns="http://www.w3.org/2000/svg">
<g clip-path="url(#clip0_13193_106838)">
<path d="M9.76374 14.2804C9.76374 13.2231 10.986 12.6344 11.8126 13.2936C12.3576 13.7282 13.1517 13.6387 13.5862 13.0937L14.2118 12.309C14.6464 11.764 14.5569 10.97 14.0119 10.5354C13.1852 9.8761 13.4871 8.5534 14.518 8.31805C15.1976 8.1629 15.6228 7.48616 15.4676 6.80654L15.2444 5.82869C15.0892 5.14907 14.4125 4.72392 13.7329 4.87908C12.702 5.11443 11.856 4.05362 12.3147 3.10085C12.6172 2.47268 12.3531 1.71822 11.725 1.41581L10.8204 0.98037C10.1926 0.678123 9.43862 0.942086 9.13636 1.56991C8.6778 2.52239 7.32138 2.52246 6.86282 1.56998C6.56055 0.942121 5.8065 0.678218 5.17868 0.980557L4.27373 1.41635C3.64581 1.71874 3.38192 2.4729 3.68431 3.10081C4.14303 4.05336 3.29721 5.11391 2.26649 4.87857C1.58703 4.72343 0.910453 5.14849 0.755344 5.82796L0.531931 6.80664C0.376799 7.48621 0.801934 8.16288 1.4815 8.31802C2.5124 8.55338 2.81418 9.87615 1.98741 10.5354C1.44239 10.97 1.35283 11.7641 1.78739 12.3091L2.41285 13.0936C2.84745 13.6387 3.6417 13.7282 4.18677 13.2936C5.01351 12.6344 6.2359 13.2229 6.2359 14.2803C6.2359 14.9774 6.80099 15.5425 7.49806 15.5425H8.50167C9.19869 15.5425 9.76374 14.9774 9.76374 14.2804ZM8.00006 10.5C6.61935 10.5 5.50006 9.38071 5.50006 8C5.50006 6.61929 6.61935 5.5 8.00006 5.5C9.38066 5.50013 10.5001 6.61937 10.5001 8C10.5001 9.38063 9.38066 10.4999 8.00006 10.5Z" fill="#CCCCCC"/>
<path d="M9.26382 14.2803C9.26382 14.7012 8.92247 15.0425 8.50161 15.0425H7.49819C7.07727 15.0425 6.73599 14.7012 6.73599 14.2803C6.73595 12.8039 5.0293 11.9826 3.87515 12.9028C3.56654 13.1488 3.12571 13.1165 2.85562 12.8403L2.80386 12.7817L2.17837 11.9976C1.91596 11.6684 1.97034 11.1887 2.29946 10.9263C3.41752 10.0346 3.05698 8.27358 1.72476 7.86572L1.59292 7.83057C1.18258 7.73688 0.926015 7.32832 1.01968 6.91797L1.24282 5.93945L1.26431 5.86426C1.38784 5.49836 1.77081 5.27839 2.15542 5.36621L2.28921 5.3916C3.622 5.59563 4.68494 4.26279 4.1896 3.00879L4.13491 2.88379C3.9524 2.50469 4.11178 2.04926 4.49087 1.8667L5.39566 1.43115L5.46743 1.40088C5.83046 1.26924 6.24115 1.4317 6.41226 1.78711C7.05262 3.117 8.94682 3.11649 9.58706 1.78662C9.76958 1.40775 10.2247 1.24833 10.6037 1.43066L11.5084 1.86621C11.8876 2.04885 12.0469 2.50448 11.8644 2.88379C11.224 4.21388 12.405 5.69531 13.8444 5.3667C14.2548 5.27302 14.6633 5.52958 14.757 5.93994L14.9801 6.91797C15.0679 7.30266 14.8481 7.68595 14.4821 7.80957L14.4069 7.83057C12.9677 8.15914 12.5461 10.0058 13.7003 10.9263L13.7589 10.978C14.0166 11.2302 14.0616 11.6309 13.8664 11.9341L13.8209 11.9976L13.1955 12.7822C12.9331 13.1111 12.4537 13.1651 12.1247 12.9028C10.9705 11.9824 9.2639 12.8042 9.26382 14.2803ZM10.0001 8C10.0001 9.0699 9.15985 9.94385 8.10318 9.99756L8.00015 10C6.89561 9.99997 6.00015 9.10455 6.00015 8C6.00015 6.89545 6.89561 6.00003 8.00015 6L8.10318 6.00244C9.15985 6.05615 10.0001 6.9301 10.0001 8ZM11.0001 8C11.0001 6.3949 9.73947 5.0843 8.15444 5.00391L8.00015 5C6.34332 5.00003 5.00015 6.34317 5.00015 8C5.00015 9.65683 6.34332 11 8.00015 11L8.15444 10.9961C9.73947 10.9157 11.0001 9.6051 11.0001 8ZM10.2638 14.2803C10.2639 13.6419 11.0021 13.2866 11.5011 13.6846C12.262 14.2913 13.3705 14.1662 13.9772 13.4053L14.6027 12.6206L14.6579 12.5483C15.1837 11.8154 15.0692 10.8 14.3932 10.2026L14.3239 10.1445C13.8247 9.74644 14.007 8.94779 14.6295 8.80566L14.7174 8.7832C15.6146 8.52993 16.1651 7.61447 15.9552 6.69531L15.7321 5.71729C15.5154 4.76851 14.5705 4.17499 13.6217 4.3916C12.9994 4.53367 12.4884 3.89328 12.7653 3.31787C13.1875 2.44095 12.819 1.38756 11.942 0.965332L11.0373 0.529785C10.1607 0.107919 9.10821 0.476527 8.68618 1.35303C8.40934 1.92807 7.59043 1.92797 7.31362 1.35303C6.90476 0.503757 5.90372 0.131353 5.04458 0.492676L4.96206 0.530273L4.05679 0.96582C3.18015 1.38805 2.81185 2.4412 3.23403 3.31787L3.25747 3.37207C3.47148 3.91432 3.012 4.49064 2.43569 4.40234L2.37808 4.39111C1.45903 4.18127 0.543856 4.73177 0.290675 5.62891L0.268214 5.7168L0.0445812 6.69531C-0.172003 7.64408 0.421515 8.58903 1.37026 8.80566L1.42739 8.8208C2.00352 8.99722 2.15959 9.75886 1.67593 10.1445C0.915055 10.7512 0.790023 11.8597 1.39663 12.6206L2.02212 13.4053L2.08023 13.4746C2.69761 14.1734 3.76144 14.2724 4.49868 13.6846C4.99797 13.2865 5.73595 13.6419 5.73599 14.2803C5.73599 15.2535 6.52499 16.0425 7.49819 16.0425H8.50161C9.4748 16.0425 10.2638 15.2534 10.2638 14.2803Z" fill="#888888"/>
</g>
<defs>
<clipPath id="clip0_13193_106838">
<rect width="16" height="16" fill="white"/>
</clipPath>
</defs>
</svg>
